<svg width="30" height="30" viewBox="0 0 30 30" fill="none" xmlns="http://www.w3.org/2000/svg">
<path d="M4.07835 9.00841C4.0546 8.78352 4.12116 8.55841 4.26338 8.38259C4.40561 8.20677 4.61185 8.09466 4.83674 8.07091C7.84752 7.75293 10.6688 6.37693 13.3151 3.91735C13.4502 3.79177 13.6225 3.71341 13.8059 3.69403C13.9894 3.67466 14.1742 3.71531 14.3326 3.80989C17.4343 5.66241 20.4808 6.4187 23.4916 6.10073C23.7164 6.07698 23.9416 6.14353 24.1174 6.28576C24.2932 6.42799 24.4053 6.63423 24.4291 6.85912L25.0559 12.7947C25.0775 12.9994 25.0944 13.2022 25.1067 13.4056C24.4962 12.9063 23.751 12.5997 22.9658 12.5247C22.1807 12.4498 21.391 12.6099 20.697 12.9846C20.003 13.3594 19.436 13.932 19.0681 14.6297C18.7002 15.3273 18.5479 16.1186 18.6306 16.903L18.6365 16.9595C18.0119 17.1572 17.4747 17.5647 17.116 18.113C16.7572 18.6613 16.599 19.3167 16.6679 19.9683L17.2649 25.6212C17.2709 25.6778 17.2778 25.7319 17.2869 25.7858C17.0302 25.9318 16.7686 26.0738 16.4976 26.2144C16.3064 26.3139 16.0847 26.3374 15.8769 26.28C9.08548 24.3999 5.30225 20.597 4.70522 14.944L4.07835 9.00841ZM19.8806 17.9141L19.7612 16.7836C19.682 16.0339 19.9039 15.2835 20.378 14.6975C20.852 14.1114 21.5395 13.7377 22.2891 13.6586C23.0388 13.5794 23.7892 13.8012 24.3752 14.2753C24.9613 14.7494 25.335 15.4369 25.4141 16.1865L25.5336 17.3171L26.0989 17.2574C26.5486 17.2099 26.9989 17.343 27.3505 17.6275C27.7021 17.9119 27.9263 18.3244 27.9739 18.7742L28.5709 24.4272C28.6184 24.877 28.4853 25.3272 28.2008 25.6788C27.9164 26.0304 27.5039 26.2547 27.0541 26.3022L20.2705 27.0186C19.8207 27.0661 19.3705 26.933 19.0189 26.6485C18.6673 26.3641 18.443 25.9516 18.3955 25.5018L17.7985 19.8489C17.751 19.3991 17.8841 18.9488 18.1686 18.5972C18.453 18.2456 18.8655 18.0214 19.3153 17.9739L19.8806 17.9141ZM21.4571 16.6044L21.5765 17.735L23.8377 17.4962L23.7183 16.3656C23.6866 16.0658 23.5371 15.7908 23.3027 15.6012C23.0683 15.4115 22.7681 15.3228 22.4683 15.3544C22.1684 15.3861 21.8934 15.5356 21.7038 15.77C21.5141 16.0044 21.4254 16.3046 21.4571 16.6044ZM24.3153 22.0186C24.2836 21.7188 24.1341 21.4438 23.8997 21.2541C23.6653 21.0645 23.3651 20.9758 23.0653 21.0074C22.7654 21.0391 22.4904 21.1886 22.3008 21.423C22.1112 21.6574 22.0224 21.9576 22.0541 22.2574C22.0858 22.5573 22.2352 22.8323 22.4697 23.0219C22.7041 23.2115 23.0042 23.3003 23.3041 23.2686C23.6039 23.2369 23.8789 23.0875 24.0686 22.853C24.2582 22.6186 24.347 22.3185 24.3153 22.0186Z" fill="#4ADE80"/>
</svg>
