<svg width="8" height="8" viewBox="0 0 8 8" fill="none" xmlns="http://www.w3.org/2000/svg">
<path fill-rule="evenodd" clip-rule="evenodd" d="M4.00002 8.00003C6.20916 8.00003 8.00003 6.20916 8.00003 4.00002C8.00003 1.79087 6.20916 0 4.00002 0C1.79087 0 0 1.79087 0 4.00002C0 6.20916 1.79087 8.00003 4.00002 8.00003Z" fill="#262C2D"/>
<path fill-rule="evenodd" clip-rule="evenodd" d="M3.99997 6.50004C5.38069 6.50004 6.49998 5.38075 6.49998 4.00003C6.49998 2.61932 5.38069 1.50002 3.99997 1.50002C2.61925 1.50002 1.49996 2.61932 1.49996 4.00003C1.49996 5.38075 2.61925 6.50004 3.99997 6.50004Z" fill="#121515"/>
<path opacity="0.4" fill-rule="evenodd" clip-rule="evenodd" d="M3.99999 3.50004C4.27614 3.50004 4.5 3.27619 4.5 3.00004C4.5 2.7239 4.27614 2.50004 3.99999 2.50004C3.72385 2.50004 3.49999 2.7239 3.49999 3.00004C3.49999 3.27619 3.72385 3.50004 3.99999 3.50004Z" fill="#636F73"/>
</svg>
