<svg width="203" height="97" viewBox="0 0 203 97" fill="none" xmlns="http://www.w3.org/2000/svg">
<path fill-rule="evenodd" clip-rule="evenodd" d="M201.574 38.9836H202.049C202.574 38.9836 203 39.4093 203 39.9344V85.5738C203 86.0989 202.574 86.5246 202.049 86.5246H201.574V38.9836Z" fill="#121515"/>
<path fill-rule="evenodd" clip-rule="evenodd" d="M0 67.5082C0 66.9831 0.425697 66.5574 0.95082 66.5574H1.42623V96.5082H0.95082C0.425697 96.5082 0 96.0825 0 95.5574V67.5082Z" fill="#121515"/>
<path fill-rule="evenodd" clip-rule="evenodd" d="M0 29.9508C0 29.4257 0.425697 29 0.95082 29H1.42623V58.9508H0.95082C0.425697 58.9508 0 58.5251 0 58V29.9508Z" fill="#121515"/>
<path fill-rule="evenodd" clip-rule="evenodd" d="M0 0.95082C0 0.425697 0.425697 0 0.95082 0H1.42623V15.6885H0.95082C0.425697 15.6885 0 15.2628 0 14.7377V0.95082Z" fill="#121515"/>
</svg>
