<svg width="20" height="24" viewBox="0 0 20 24" fill="none" xmlns="http://www.w3.org/2000/svg">
<g clip-path="url(#clip0_0_3)">
<path d="M19.5808 18.5336C19.2218 19.3645 18.7967 20.1293 18.3043 20.8325C17.633 21.791 17.0834 22.4545 16.6598 22.823C16.0032 23.4278 15.2997 23.7375 14.5464 23.7552C14.0056 23.7552 13.3534 23.601 12.5942 23.2883C11.8325 22.9771 11.1325 22.823 10.4925 22.823C9.8212 22.823 9.10128 22.9771 8.33124 23.2883C7.56002 23.601 6.93874 23.764 6.46373 23.7801C5.74132 23.8109 5.02125 23.4924 4.30251 22.823C3.84377 22.4223 3.26997 21.7352 2.58259 20.762C1.84508 19.7227 1.23875 18.5175 0.763741 17.1435C0.25502 15.6594 0 14.2223 0 12.8309C0 11.2372 0.343837 9.86257 1.03254 8.71067C1.5738 7.78541 2.29386 7.05555 3.19508 6.51974C4.09629 5.98394 5.07006 5.7109 6.11872 5.69343C6.69251 5.69343 7.44497 5.8712 8.38004 6.22057C9.31248 6.57112 9.91119 6.74889 10.1737 6.74889C10.3699 6.74889 11.035 6.54103 12.1625 6.12662C13.2288 5.74231 14.1287 5.58319 14.8659 5.64587C16.8636 5.80734 18.3644 6.59608 19.3625 8.01706C17.5759 9.10129 16.6921 10.6199 16.7097 12.568C16.7258 14.0854 17.2754 15.3482 18.3556 16.3508C18.8451 16.8161 19.3918 17.1758 20 17.4312C19.8681 17.8143 19.7289 18.1813 19.5808 18.5336ZM14.9993 0.476315C14.9993 1.66567 14.5654 2.77616 13.7007 3.80402C12.6572 5.02595 11.395 5.73204 10.0262 5.62062C10.0088 5.47793 9.99868 5.32776 9.99868 5.16996C9.99868 4.02818 10.4949 2.80625 11.3762 1.80716C11.8162 1.30131 12.3758 0.880692 13.0544 0.545161C13.7315 0.214636 14.372 0.0318488 14.9744 0.000547232C14.9919 0.159545 14.9993 0.318553 14.9993 0.476299V0.476315Z" fill="black"/>
</g>
<defs>
<clipPath id="clip0_0_3">
<rect width="19.5185" height="23.2091" fill="white" transform="scale(1.02467)"/>
</clipPath>
</defs>
</svg>
