<svg width="85" height="78" viewBox="0 0 85 78" fill="none" xmlns="http://www.w3.org/2000/svg">
<circle cx="36.3311" cy="36.3311" r="36.3311" fill="#F9FAFB"/>
<circle cx="1.0092" cy="65.5978" r="1.0092" fill="#AB92F0"/>
<circle cx="72.1576" cy="5.55059" r="1.5138" fill="#FDE047"/>
<circle cx="73.1668" cy="7.56898" r="1.4138" stroke="#111827" stroke-width="0.2"/>
<circle cx="1.0092" cy="6.05518" r="1.0092" fill="#E5E7EB"/>
<g opacity="0.8">
<path opacity="0.8" d="M40.3679 36.3311C41.2956 36.3311 42.2142 36.1484 43.0713 35.7934C43.9284 35.4383 44.7072 34.918 45.3632 34.262C46.0192 33.606 46.5395 32.8272 46.8945 31.9701C47.2496 31.1131 47.4323 30.1944 47.4323 29.2667C47.4323 28.339 47.2496 27.4204 46.8945 26.5633C46.5395 25.7062 46.0192 24.9274 45.3632 24.2715C44.7072 23.6155 43.9284 23.0951 43.0713 22.7401C42.2142 22.3851 41.2956 22.2023 40.3679 22.2023C38.4943 22.2023 36.6975 22.9466 35.3726 24.2715C34.0478 25.5963 33.3035 27.3931 33.3035 29.2667C33.3035 31.1403 34.0478 32.9372 35.3726 34.262C36.6975 35.5868 38.4943 36.3311 40.3679 36.3311Z" fill="#97EDFF"/>
<path opacity="0.8" fill-rule="evenodd" clip-rule="evenodd" d="M53.4875 49.8301C53.4875 42.5841 47.6139 37.3403 40.3679 37.3403C33.1219 37.3403 27.2483 42.5841 27.2483 49.8301L27.2524 53.4875C27.2524 54.0228 27.465 54.5362 27.8435 54.9147C28.2221 55.2932 28.7355 55.5059 29.2708 55.5059H51.4691C52.0044 55.5059 52.5178 55.2932 52.8963 54.9147C53.2748 54.5362 53.4875 54.0228 53.4875 53.4875V49.8281V49.8301Z" fill="#97EDFF"/>
</g>
<path fill-rule="evenodd" clip-rule="evenodd" d="M31.2851 28.2575C31.2851 26.9192 31.8167 25.6358 32.7631 24.6895C33.7094 23.7432 34.9928 23.2115 36.3311 23.2115C37.6694 23.2115 38.9529 23.7432 39.8992 24.6895C40.8455 25.6358 41.3771 26.9192 41.3771 28.2575C41.3771 29.5958 40.8455 30.8793 39.8992 31.8256C38.9529 32.7719 37.6694 33.3035 36.3311 33.3035C34.9928 33.3035 33.7094 32.7719 32.7631 31.8256C31.8167 30.8793 31.2851 29.5958 31.2851 28.2575ZM36.3311 21.1931C35.4034 21.1931 34.4848 21.3759 33.6277 21.7309C32.7706 22.0859 31.9918 22.6063 31.3358 23.2623C30.6798 23.9182 30.1595 24.697 29.8045 25.5541C29.4495 26.4112 29.2667 27.3298 29.2667 28.2575C29.2667 29.1852 29.4495 30.1039 29.8045 30.961C30.1595 31.818 30.6798 32.5968 31.3358 33.2528C31.9918 33.9088 32.7706 34.4291 33.6277 34.7842C34.4848 35.1392 35.4034 35.3219 36.3311 35.3219C38.2047 35.3219 40.0016 34.5776 41.3264 33.2528C42.6512 31.928 43.3955 30.1311 43.3955 28.2575C43.3955 26.3839 42.6512 24.5871 41.3264 23.2623C40.0016 21.9374 38.2047 21.1931 36.3311 21.1931ZM36.3634 35.3219C29.2889 35.3219 23.2115 40.5294 23.2115 47.4323L23.2156 52.4783C23.2156 52.7459 23.3219 53.0026 23.5112 53.1919C23.7004 53.3811 23.9571 53.4875 24.2248 53.4875C24.4924 53.4875 24.7491 53.3811 24.9384 53.1919C25.1276 53.0026 25.234 52.7459 25.234 52.4783L25.2299 47.4323C25.2299 41.8312 30.2033 37.3403 36.3634 37.3403C42.5175 37.3403 47.4323 41.8252 47.4323 47.4323V52.4783C47.4323 52.7459 47.5386 53.0026 47.7279 53.1919C47.9171 53.3811 48.1738 53.4875 48.4415 53.4875C48.7091 53.4875 48.9658 53.3811 49.1551 53.1919C49.3443 53.0026 49.4507 52.7459 49.4507 52.4783V47.4323C49.4507 40.5354 43.4459 35.3219 36.3634 35.3219Z" fill="#0A6375"/>
<path fill-rule="evenodd" clip-rule="evenodd" d="M67.4265 67.6644C67.9924 70.1491 67.925 72.5346 67.9663 75.0485C67.9744 75.5395 67.5927 75.943 67.1144 75.9521C66.6357 75.9612 66.241 75.5691 66.2327 75.0781C66.1936 72.6943 66.2752 70.4273 65.7382 68.0671C65.6294 67.5897 65.9198 67.1112 66.3858 67.0015C66.8515 66.8887 67.3181 67.187 67.4265 67.6644Z" fill="#FFF1EE"/>
<path fill-rule="evenodd" clip-rule="evenodd" d="M72.543 62.9233C76.5377 66.75 80.2861 71.656 82.888 76.5957C83.1149 77.0272 82.9573 77.5664 82.5361 77.798C82.1149 78.0295 81.5886 77.8695 81.3617 77.438C78.8457 72.662 75.2205 67.9171 71.3578 64.2191C71.0087 63.8837 70.9908 63.3217 71.3179 62.9649C71.6449 62.608 72.1939 62.588 72.543 62.9233Z" fill="#FFF1EE"/>
<path fill-rule="evenodd" clip-rule="evenodd" d="M73.6156 58.8081C77.3178 58.2284 81.1135 59.3382 84.4552 60.8831C84.8912 61.0865 85.0849 61.6121 84.888 62.0563C84.6908 62.5034 84.1766 62.7013 83.7406 62.501C80.6973 61.0926 77.2489 60.0342 73.877 60.5618C73.4039 60.636 72.9614 60.3025 72.8894 59.8196C72.8172 59.3368 73.1428 58.8823 73.6156 58.8081Z" fill="#FFF1EE"/>
<path fill-rule="evenodd" clip-rule="evenodd" d="M66.4173 64.6368C66.9832 67.1215 66.9158 69.507 66.9571 72.0209C66.9652 72.5119 66.5835 72.9154 66.1052 72.9245C65.6265 72.9336 65.2318 72.5415 65.2235 72.0505C65.1844 69.6667 65.266 67.3997 64.729 65.0395C64.6202 64.5622 64.9106 64.0836 65.3766 63.9739C65.8423 63.8611 66.3089 64.1594 66.4173 64.6368Z" fill="#FFB9AA"/>
<path fill-rule="evenodd" clip-rule="evenodd" d="M71.5338 59.8957C75.5285 63.7224 79.2769 68.6284 81.8788 73.5681C82.1057 73.9996 81.9481 74.5388 81.5269 74.7704C81.1057 75.0019 80.5794 74.8419 80.3525 74.4104C77.8365 69.6344 74.2113 64.8895 70.3486 61.1915C69.9995 60.8562 69.9816 60.2941 70.3087 59.9373C70.6357 59.5804 71.1847 59.5604 71.5338 59.8957Z" fill="#FFB9AA"/>
<path fill-rule="evenodd" clip-rule="evenodd" d="M72.6064 55.7805C76.3086 55.2008 80.1043 56.3106 83.446 57.8555C83.882 58.0589 84.0757 58.5846 83.8788 59.0287C83.6816 59.4758 83.1674 59.6737 82.7314 59.4734C79.6881 58.065 76.2397 57.0067 72.8678 57.5342C72.3947 57.6084 71.9522 57.2749 71.8802 56.792C71.808 56.3092 72.1336 55.8547 72.6064 55.7805Z" fill="#FFB9AA"/>
</svg>
