<svg width="91" height="77" viewBox="0 0 91 77" fill="none" xmlns="http://www.w3.org/2000/svg">
<circle cx="36.3018" cy="40.6285" r="36.3018" fill="#F9FAFB"/>
<circle cx="1.00838" cy="69.8716" r="1.00838" fill="#86EFAC"/>
<circle cx="69.5785" cy="75.9219" r="1.00838" fill="#FDE047"/>
<circle cx="13.109" cy="5.33507" r="1.00838" fill="#E5E7EB"/>
<path opacity="0.8" fill-rule="evenodd" clip-rule="evenodd" d="M31.865 39.841V32.864C31.865 30.8047 32.683 28.8298 34.1392 27.3736C35.5953 25.9175 37.5702 25.0994 39.6295 25.0994C41.6888 25.0994 43.6638 25.9175 45.1199 27.3736C46.576 28.8298 47.3941 30.8047 47.3941 32.864V39.841C50.602 40.7949 52.9402 43.7676 52.9402 47.2839V53.9392C52.9402 55.9985 52.1221 57.9734 50.666 59.4296C49.2099 60.8857 47.2349 61.7038 45.1756 61.7038H34.0834C32.0241 61.7038 30.0492 60.8857 28.593 59.4296C27.1369 57.9734 26.3189 55.9985 26.3189 53.9392V47.2839C26.3191 45.6116 26.859 43.9841 27.8582 42.6431C28.8574 41.3022 30.2626 40.3195 31.865 39.841ZM35.1926 39.5193V32.864C35.1926 31.6872 35.6601 30.5587 36.4922 29.7266C37.3242 28.8946 38.4528 28.4271 39.6295 28.4271C40.8063 28.4271 41.9348 28.8946 42.7669 29.7266C43.599 30.5587 44.0664 31.6872 44.0664 32.864V39.5193H35.1926Z" fill="#97EDFF"/>
<path fill-rule="evenodd" clip-rule="evenodd" d="M30.7557 46.1747C30.7557 47.3514 31.2232 48.4799 32.0552 49.312C32.8873 50.1441 34.0159 50.6115 35.1926 50.6115C36.3693 50.6115 37.4979 50.1441 38.33 49.312C39.162 48.4799 39.6295 47.3514 39.6295 46.1747C39.6295 44.9979 39.162 43.8694 38.33 43.0373C37.4979 42.2052 36.3693 41.7378 35.1926 41.7378C34.0159 41.7378 32.8873 42.2052 32.0552 43.0373C31.2232 43.8694 30.7557 44.9979 30.7557 46.1747ZM37.411 46.1747C37.411 46.763 37.1773 47.3273 36.7613 47.7433C36.3452 48.1594 35.781 48.3931 35.1926 48.3931C34.6042 48.3931 34.04 48.1594 33.6239 47.7433C33.2079 47.3273 32.9742 46.763 32.9742 46.1747C32.9742 45.5863 33.2079 45.022 33.6239 44.606C34.04 44.1899 34.6042 43.9562 35.1926 43.9562C35.781 43.9562 36.3452 44.1899 36.7613 44.606C37.1773 45.022 37.411 45.5863 37.411 46.1747Z" fill="#0A6375"/>
<path fill-rule="evenodd" clip-rule="evenodd" d="M40.7387 35.0824H29.6465C27.5872 35.0824 25.6123 35.9004 24.1561 37.3566C22.7 38.8127 21.8819 40.7877 21.8819 42.8469V49.5023C21.8819 51.5616 22.7 53.5365 24.1561 54.9927C25.6123 56.4488 27.5872 57.2668 29.6465 57.2668H40.7387C42.798 57.2668 44.773 56.4488 46.2291 54.9927C47.6852 53.5365 48.5033 51.5616 48.5033 49.5023V42.8469C48.5033 40.7877 47.6852 38.8127 46.2291 37.3566C44.773 35.9004 42.798 35.0824 40.7387 35.0824ZM24.1004 42.8469C24.1004 41.376 24.6847 39.9654 25.7248 38.9253C26.7649 37.8852 28.1756 37.3008 29.6465 37.3008H40.7387C42.2096 37.3008 43.6203 37.8852 44.6604 38.9253C45.7005 39.9654 46.2848 41.376 46.2848 42.8469V49.5023C46.2848 50.9732 45.7005 52.3839 44.6604 53.424C43.6203 54.4641 42.2096 55.0484 40.7387 55.0484H29.6465C28.1756 55.0484 26.7649 54.4641 25.7248 53.424C24.6847 52.3839 24.1004 50.9732 24.1004 49.5023V42.8469Z" fill="#0A6375"/>
<path d="M29.6465 36.1916C29.6465 36.4858 29.5296 36.768 29.3216 36.976C29.1136 37.184 28.8315 37.3009 28.5373 37.3009C28.2431 37.3009 27.961 37.184 27.7529 36.976C27.5449 36.768 27.4281 36.4858 27.4281 36.1916V28.4271C27.4281 27.4074 27.6289 26.3977 28.0191 25.4557C28.4093 24.5137 28.9812 23.6577 29.7022 22.9367C30.4232 22.2157 31.2792 21.6438 32.2212 21.2536C33.1633 20.8634 34.173 20.6625 35.1926 20.6625C36.2123 20.6625 37.2219 20.8634 38.164 21.2536C39.106 21.6438 39.962 22.2157 40.683 22.9367C41.404 23.6577 41.9759 24.5137 42.3661 25.4557C42.7563 26.3977 42.9572 27.4074 42.9572 28.4271V36.1916C42.9572 36.4858 42.8403 36.768 42.6323 36.976C42.4243 37.184 42.1421 37.3009 41.8479 37.3009C41.5538 37.3009 41.2716 37.184 41.0636 36.976C40.8556 36.768 40.7387 36.4858 40.7387 36.1916V28.4271C40.7387 26.9562 40.1544 25.5455 39.1143 24.5054C38.0742 23.4653 36.6635 22.881 35.1926 22.881C33.7217 22.881 32.311 23.4653 31.2709 24.5054C30.2308 25.5455 29.6465 26.9562 29.6465 28.4271V36.1916Z" fill="#0A6375"/>
<path fill-rule="evenodd" clip-rule="evenodd" d="M80.6419 23.1167C82.7332 22.9448 84.8754 23.0433 86.951 23.1528C87.3979 23.1777 87.7576 23.5245 87.7223 23.9208C87.7183 24.3228 87.344 24.6272 86.9285 24.6076C84.917 24.4999 82.8403 24.3976 80.8461 24.5664C80.4208 24.6042 80.0199 24.3089 79.9593 23.908C79.8986 23.5074 80.2165 23.1548 80.6419 23.1167Z" fill="#FFF1EE"/>
<path fill-rule="evenodd" clip-rule="evenodd" d="M75.8074 14.8049C79.5442 12.3503 83.6222 10.3517 87.3101 7.8059C87.6409 7.56583 88.1445 7.63574 88.4118 7.95801C88.6791 8.28056 88.6332 8.73857 88.271 8.97331C84.5816 11.528 80.5021 13.5351 76.7638 15.9986C76.4028 16.2264 75.9013 16.1451 75.6353 15.8151C75.4006 15.4908 75.4464 15.0328 75.8074 14.8049Z" fill="#FFF1EE"/>
<path fill-rule="evenodd" clip-rule="evenodd" d="M71.7322 2.22108C71.3454 3.9244 70.9587 5.62775 70.5719 7.33136C70.5048 7.72518 70.0771 7.96523 69.642 7.87141C69.2069 7.7773 68.9511 7.38876 69.0182 6.99465C69.4055 5.28847 69.7926 3.58254 70.1799 1.87665C70.2783 1.48816 70.7055 1.2501 71.1402 1.34621C71.5436 1.43698 71.8305 1.83288 71.7322 2.22108Z" fill="#FFF1EE"/>
<path fill-rule="evenodd" clip-rule="evenodd" d="M78.6022 22.1375C80.7102 21.9642 82.8693 22.0635 84.9614 22.1738C85.4117 22.199 85.7743 22.5486 85.7387 22.948C85.7347 23.3531 85.3574 23.6599 84.9386 23.6402C82.9112 23.5316 80.8181 23.4285 78.8081 23.5986C78.3794 23.6367 77.9753 23.3391 77.9142 22.935C77.8531 22.5313 78.1735 22.1759 78.6022 22.1375Z" fill="#FFB9AA"/>
<path fill-rule="evenodd" clip-rule="evenodd" d="M73.7295 13.7599C77.4959 11.2859 81.6061 9.27148 85.3232 6.70549C85.6567 6.46351 86.1643 6.53397 86.4338 6.85879C86.7031 7.1839 86.6568 7.64554 86.2918 7.88213C82.5732 10.4571 78.4614 12.4801 74.6935 14.963C74.3297 15.1927 73.8241 15.1107 73.556 14.7781C73.3195 14.4512 73.3656 13.9896 73.7295 13.7599Z" fill="#FFB9AA"/>
<path fill-rule="evenodd" clip-rule="evenodd" d="M69.622 1.07642C69.2321 2.79323 68.8424 4.51007 68.4525 6.22717C68.3849 6.62411 67.9538 6.86605 67.5152 6.77149C67.0767 6.67664 66.8189 6.28502 66.8866 5.88779C67.2769 4.1681 67.6671 2.44867 68.0574 0.729267C68.1566 0.337703 68.5872 0.097753 69.0254 0.194623C69.432 0.286116 69.7211 0.685148 69.622 1.07642Z" fill="#FFB9AA"/>
</svg>
