<svg width="27" height="17" viewBox="0 0 27 17" fill="none" xmlns="http://www.w3.org/2000/svg">
<path fill-rule="evenodd" clip-rule="evenodd" d="M9.84942 14.971H17.1505V1.79207H9.84942V14.971Z" fill="#FF5F00"/>
<path fill-rule="evenodd" clip-rule="evenodd" d="M10.313 8.38173C10.313 5.70804 11.5593 3.32677 13.5 1.79226C12.0806 0.669839 10.2899 0.000251903 8.34337 0.000251903C3.73536 0.000251903 0 3.75283 0 8.38173C0 13.0106 3.73536 16.7632 8.34337 16.7632C10.2899 16.7632 12.0806 16.0936 13.5 14.9712C11.5593 13.4365 10.313 11.0554 10.313 8.38173Z" fill="#EB001B"/>
<path fill-rule="evenodd" clip-rule="evenodd" d="M26.7395 13.5752V13.25H26.6549L26.5578 13.4737L26.4604 13.25H26.3758V13.5752H26.4354V13.3298L26.5267 13.5414H26.5886L26.6799 13.3294V13.5752H26.7395ZM26.2038 13.5752V13.3054H26.3123V13.2504H26.0365V13.3054H26.1447V13.5752H26.2038ZM27 8.38148C27 13.0104 23.2644 16.763 18.6566 16.763C16.7101 16.763 14.9192 16.0934 13.5 14.971C15.4407 13.4364 16.687 11.0552 16.687 8.38148C16.687 5.70802 15.4407 3.32675 13.5 1.79201C14.9192 0.669587 16.7101 0 18.6566 0C23.2644 0 27 3.75258 27 8.38148Z" fill="#F79E1B"/>
</svg>
